<svg xmlns="http://www.w3.org/2000/svg" xmlns:xlink="http://www.w3.org/1999/xlink" width="1080" zoomAndPan="magnify" viewBox="0 0 810 809.999993" height="1080" preserveAspectRatio="xMidYMid meet" version="1.0"><defs><clipPath id="230bd73265"><path d="M 17 0 L 793 0 L 793 784.6875 L 17 784.6875 Z M 17 0 " clip-rule="nonzero"/></clipPath><clipPath id="3369dc9867"><path d="M 345.402344 764.46875 L 59.597656 546.136719 C 23.792969 518.78125 8.839844 472.003906 22.144531 428.949219 L 132.554688 71.65625 C 145.71875 29.054688 185.105469 0 229.695312 0 L 580.304688 0 C 624.894531 0 664.28125 29.054688 677.445312 71.65625 L 787.855469 428.949219 C 801.160156 472.003906 786.207031 518.78125 750.402344 546.136719 L 464.597656 764.46875 C 429.414062 791.351562 380.585938 791.351562 345.402344 764.46875 Z M 345.402344 764.46875 " clip-rule="nonzero"/></clipPath></defs><g clip-path="url(#230bd73265)"><g clip-path="url(#3369dc9867)"><path stroke-linecap="butt" transform="matrix(-0.75, 0, 0, -0.75, 809.999963, 809.999979)" fill="none" stroke-linejoin="miter" d="M 619.463523 60.708309 L 1000.536459 351.817698 C 1048.276045 388.291659 1068.213546 450.661453 1050.473962 508.067706 L 903.260412 984.458355 C 885.708328 1041.260441 833.192701 1080.000027 773.739573 1080.000027 L 306.260382 1080.000027 C 246.807254 1080.000027 194.291627 1041.260441 176.739543 984.458355 L 29.525993 508.067706 C 11.786409 450.661453 31.72391 388.291659 79.463496 351.817698 L 460.536432 60.708309 C 507.447893 24.864557 572.552062 24.864557 619.463523 60.708309 Z M 619.463523 60.708309 " stroke="#ffffff" stroke-width="200" stroke-opacity="1" stroke-miterlimit="4"/></g></g></svg>