<svg xmlns="http://www.w3.org/2000/svg" xmlns:xlink="http://www.w3.org/1999/xlink" width="1080" zoomAndPan="magnify" viewBox="0 0 810 809.999993" height="1080" preserveAspectRatio="xMidYMid meet" version="1.0"><defs><clipPath id="586bfff196"><path d="M 115.511719 115.511719 L 694.488281 115.511719 L 694.488281 694.488281 L 115.511719 694.488281 Z M 115.511719 115.511719 " clip-rule="nonzero"/></clipPath><clipPath id="3c2908039c"><path d="M 405 115.511719 C 245.121094 115.511719 115.511719 245.121094 115.511719 405 C 115.511719 564.878906 245.121094 694.488281 405 694.488281 C 564.878906 694.488281 694.488281 564.878906 694.488281 405 C 694.488281 245.121094 564.878906 115.511719 405 115.511719 Z M 405 115.511719 " clip-rule="nonzero"/></clipPath><clipPath id="accbf0658a"><path d="M 115.511719 115.511719 L 694.476562 115.511719 L 694.476562 694.476562 L 115.511719 694.476562 Z M 115.511719 115.511719 " clip-rule="nonzero"/></clipPath><clipPath id="68d8ec5435"><path d="M 404.996094 115.511719 C 245.117188 115.511719 115.511719 245.117188 115.511719 404.996094 C 115.511719 564.871094 245.117188 694.476562 404.996094 694.476562 C 564.871094 694.476562 694.476562 564.871094 694.476562 404.996094 C 694.476562 245.117188 564.871094 115.511719 404.996094 115.511719 Z M 404.996094 115.511719 " clip-rule="nonzero"/></clipPath></defs><g clip-path="url(#586bfff196)"><g clip-path="url(#3c2908039c)"><path fill="#ffffff" d="M 115.511719 115.511719 L 694.488281 115.511719 L 694.488281 694.488281 L 115.511719 694.488281 Z M 115.511719 115.511719 " fill-opacity="1" fill-rule="nonzero"/></g></g><g clip-path="url(#accbf0658a)"><g clip-path="url(#68d8ec5435)"><path stroke-linecap="butt" transform="matrix(0.75, 0, 0, 0.75, 115.512199, 115.512216)" fill="none" stroke-linejoin="miter" d="M 385.978545 -0.000662718 C 172.80666 -0.000662718 -0.000640718 172.806638 -0.000640718 385.978523 C -0.000640718 599.145201 172.80666 771.952501 385.978545 771.952501 C 599.145223 771.952501 771.952523 599.145201 771.952523 385.978523 C 771.952523 172.806638 599.145223 -0.000662718 385.978545 -0.000662718 Z M 385.978545 -0.000662718 " stroke="#ffffff" stroke-width="20" stroke-opacity="1" stroke-miterlimit="4"/></g></g></svg>