<svg xmlns="http://www.w3.org/2000/svg" xmlns:xlink="http://www.w3.org/1999/xlink" width="1080" zoomAndPan="magnify" viewBox="0 0 810 809.999993" height="1080" preserveAspectRatio="xMidYMid meet" version="1.0"><defs><clipPath id="5fd71c09f1"><path d="M 115.511719 115.511719 L 694.476562 115.511719 L 694.476562 694.476562 L 115.511719 694.476562 Z M 115.511719 115.511719 " clip-rule="nonzero"/></clipPath><clipPath id="0fdde37536"><path d="M 404.996094 115.511719 C 245.117188 115.511719 115.511719 245.117188 115.511719 404.996094 C 115.511719 564.871094 245.117188 694.476562 404.996094 694.476562 C 564.871094 694.476562 694.476562 564.871094 694.476562 404.996094 C 694.476562 245.117188 564.871094 115.511719 404.996094 115.511719 Z M 404.996094 115.511719 " clip-rule="nonzero"/></clipPath></defs><g clip-path="url(#5fd71c09f1)"><g clip-path="url(#0fdde37536)"><path stroke-linecap="butt" transform="matrix(0.75, 0, 0, 0.75, 115.512199, 115.512216)" fill="none" stroke-linejoin="miter" d="M 385.978545 -0.000662718 C 172.80666 -0.000662718 -0.000640718 172.806638 -0.000640718 385.978523 C -0.000640718 599.145201 172.80666 771.952501 385.978545 771.952501 C 599.145223 771.952501 771.952523 599.145201 771.952523 385.978523 C 771.952523 172.806638 599.145223 -0.000662718 385.978545 -0.000662718 Z M 385.978545 -0.000662718 " stroke="#ffffff" stroke-width="200" stroke-opacity="1" stroke-miterlimit="4"/></g></g><path stroke-linecap="butt" transform="matrix(0.572978, -0.483938, 0.483938, 0.572978, 206.377568, 523.66857)" fill="none" stroke-linejoin="miter" d="M 0.000680236 49.998699 L 608.83674 50.002328 " stroke="#ffffff" stroke-width="100" stroke-opacity="1" stroke-miterlimit="4"/></svg>