<svg xmlns="http://www.w3.org/2000/svg" xmlns:xlink="http://www.w3.org/1999/xlink" width="1080" zoomAndPan="magnify" viewBox="0 0 810 809.999993" height="1080" preserveAspectRatio="xMidYMid meet" version="1.0"><defs><clipPath id="0cb22e3419"><path d="M 481.875 0 L 328.125 0 C 286.703125 0 253.125 33.578125 253.125 75 L 253.125 178.125 C 253.125 219.546875 219.546875 253.125 178.125 253.125 L 75 253.125 C 33.578125 253.125 0 286.703125 0 328.125 L 0 481.875 C 0 523.296875 33.578125 556.875 75 556.875 L 178.125 556.875 C 219.546875 556.875 253.125 590.453125 253.125 631.875 L 253.125 735 C 253.125 776.421875 286.703125 810 328.125 810 L 481.875 810 C 523.296875 810 556.875 776.421875 556.875 735 L 556.875 631.875 C 556.875 590.453125 590.453125 556.875 631.875 556.875 L 735 556.875 C 776.421875 556.875 810 523.296875 810 481.875 L 810 328.125 C 810 286.703125 776.421875 253.125 735 253.125 L 631.875 253.125 C 590.453125 253.125 556.875 219.546875 556.875 178.125 L 556.875 75 C 556.875 33.578125 523.296875 0 481.875 0 Z M 481.875 0 " clip-rule="nonzero"/></clipPath></defs><g clip-path="url(#0cb22e3419)"><path stroke-linecap="butt" transform="matrix(0.75, 0, 0, 0.75, 0.0000035, 0.00002)" fill="none" stroke-linejoin="miter" d="M 642.500028 -0.0000266667 L 437.500017 -0.0000266667 C 382.270848 -0.0000266667 337.500012 44.770809 337.500012 99.999978 L 337.500012 237.499985 C 337.500012 292.729155 292.729177 337.49999 237.500007 337.49999 L 100 337.49999 C 44.770831 337.49999 -0.00000466667 382.270826 -0.00000466667 437.499995 L -0.00000466667 642.500006 C -0.00000466667 697.729175 44.770831 742.500011 100 742.500011 L 237.500007 742.500011 C 292.729177 742.500011 337.500012 787.270846 337.500012 842.500016 L 337.500012 980.000023 C 337.500012 1035.229192 382.270848 1080.000028 437.500017 1080.000028 L 642.500028 1080.000028 C 697.729197 1080.000028 742.500033 1035.229192 742.500033 980.000023 L 742.500033 842.500016 C 742.500033 787.270846 787.270868 742.500011 842.500038 742.500011 L 980.000045 742.500011 C 1035.229214 742.500011 1080.00005 697.729175 1080.00005 642.500006 L 1080.00005 437.499995 C 1080.00005 382.270826 1035.229214 337.49999 980.000045 337.49999 L 842.500038 337.49999 C 787.270868 337.49999 742.500033 292.729155 742.500033 237.499985 L 742.500033 99.999978 C 742.500033 44.770809 697.729197 -0.0000266667 642.500028 -0.0000266667 Z M 642.500028 -0.0000266667 " stroke="#ffffff" stroke-width="200" stroke-opacity="1" stroke-miterlimit="4"/></g></svg>