<svg xmlns="http://www.w3.org/2000/svg" xmlns:xlink="http://www.w3.org/1999/xlink" width="1920" zoomAndPan="magnify" viewBox="0 0 1440 195.000001" height="260" preserveAspectRatio="xMidYMid meet" version="1.0"><defs><clipPath id="b2edc6cdd7"><path d="M 3.671875 0 L 1436.324219 0 L 1436.324219 194.003906 L 3.671875 194.003906 Z M 3.671875 0 " clip-rule="nonzero"/></clipPath><clipPath id="8b3f06b83c"><path d="M 40.980469 0 L 1399.019531 0 C 1419.621094 0 1436.328125 16.703125 1436.328125 37.308594 L 1436.328125 156.695312 C 1436.328125 177.300781 1419.621094 194.003906 1399.019531 194.003906 L 40.980469 194.003906 C 20.378906 194.003906 3.671875 177.300781 3.671875 156.695312 L 3.671875 37.308594 C 3.671875 16.703125 20.378906 0 40.980469 0 Z M 40.980469 0 " clip-rule="nonzero"/></clipPath></defs><g clip-path="url(#b2edc6cdd7)"><g clip-path="url(#8b3f06b83c)"><path stroke-linecap="butt" transform="matrix(0.746173, 0, 0, 0.746173, 3.673466, 0.0000139962)" fill="none" stroke-linejoin="miter" d="M 49.997763 -0.0000187574 L 1870.002317 -0.0000187574 C 1897.611933 -0.0000187574 1920.002212 22.385025 1920.002212 49.999876 L 1920.002212 209.998493 C 1920.002212 237.613345 1897.611933 259.998388 1870.002317 259.998388 L 49.997763 259.998388 C 22.388147 259.998388 -0.00213183 237.613345 -0.00213183 209.998493 L -0.00213183 49.999876 C -0.00213183 22.385025 22.388147 -0.0000187574 49.997763 -0.0000187574 Z M 49.997763 -0.0000187574 " stroke="#ffffff" stroke-width="50" stroke-opacity="1" stroke-miterlimit="4"/></g></g></svg>