<svg xmlns="http://www.w3.org/2000/svg" xmlns:xlink="http://www.w3.org/1999/xlink" width="350" zoomAndPan="magnify" viewBox="0 0 262.5 195.000001" height="260" preserveAspectRatio="xMidYMid meet" version="1.0"><defs><clipPath id="c33808b62e"><path d="M 0.421875 0 L 261.582031 0 L 261.582031 194.003906 L 0.421875 194.003906 Z M 0.421875 0 " clip-rule="nonzero"/></clipPath><clipPath id="f6e2853b59"><path d="M 37.730469 0 L 224.273438 0 C 244.878906 0 261.582031 16.703125 261.582031 37.308594 L 261.582031 156.695312 C 261.582031 177.300781 244.878906 194.003906 224.273438 194.003906 L 37.730469 194.003906 C 17.125 194.003906 0.421875 177.300781 0.421875 156.695312 L 0.421875 37.308594 C 0.421875 16.703125 17.125 0 37.730469 0 Z M 37.730469 0 " clip-rule="nonzero"/></clipPath></defs><g clip-path="url(#c33808b62e)"><g clip-path="url(#f6e2853b59)"><path stroke-linecap="butt" transform="matrix(0.746173, 0, 0, 0.746173, 0.420921, 0.00000994898)" fill="none" stroke-linejoin="miter" d="M 50.001177 -0.0000133333 L 300.000668 -0.0000133333 C 327.615521 -0.0000133333 350.000566 22.385032 350.000566 49.999885 L 350.000566 209.998512 C 350.000566 237.613365 327.615521 259.99841 300.000668 259.99841 L 50.001177 259.99841 C 22.386324 259.99841 0.00127902 237.613365 0.00127902 209.998512 L 0.00127902 49.999885 C 0.00127902 22.385032 22.386324 -0.0000133333 50.001177 -0.0000133333 Z M 50.001177 -0.0000133333 " stroke="#ffffff" stroke-width="50" stroke-opacity="1" stroke-miterlimit="4"/></g></g></svg>