<svg xmlns="http://www.w3.org/2000/svg" xmlns:xlink="http://www.w3.org/1999/xlink" width="350" zoomAndPan="magnify" viewBox="0 0 262.5 195.000001" height="260" preserveAspectRatio="xMidYMid meet" version="1.0"><defs><clipPath id="7bd353c9d0"><path d="M 75 38.535156 L 187 38.535156 L 187 151 L 75 151 Z M 75 38.535156 " clip-rule="nonzero"/></clipPath><clipPath id="79c150868a"><path d="M 119.136719 146.625 L 84.167969 119.910156 C 77.042969 114.46875 74.070312 105.160156 76.714844 96.59375 L 90.320312 52.570312 C 92.941406 44.09375 100.777344 38.3125 109.648438 38.3125 L 152.34375 38.3125 C 161.214844 38.3125 169.050781 44.09375 171.671875 52.570312 L 185.277344 96.59375 C 187.921875 105.160156 184.949219 114.46875 177.824219 119.910156 L 142.855469 146.625 C 135.851562 151.972656 126.140625 151.972656 119.136719 146.625 Z M 119.136719 146.625 " clip-rule="nonzero"/></clipPath></defs><g clip-path="url(#7bd353c9d0)"><g clip-path="url(#79c150868a)"><path stroke-linecap="butt" transform="matrix(-0.746173, 0, 0, -0.746173, 189.681574, 155.682862)" fill="none" stroke-linejoin="miter" d="M 94.542169 12.139084 L 141.406273 47.941542 C 150.954992 55.233957 154.938859 67.709064 151.394735 79.189513 L 133.161081 138.188447 C 129.648367 149.54849 119.146871 157.296354 107.258088 157.296354 L 50.039069 157.296354 C 38.150287 157.296354 27.648791 149.54849 24.136077 138.188447 L 5.902422 79.189513 C 2.358298 67.709064 6.342166 55.233957 15.890884 47.941542 L 62.754988 12.139084 C 72.14142 4.97231 85.155737 4.97231 94.542169 12.139084 Z M 94.542169 12.139084 " stroke="#d9d9d9" stroke-width="40" stroke-opacity="1" stroke-miterlimit="4"/></g></g></svg>