<svg xmlns="http://www.w3.org/2000/svg" xmlns:xlink="http://www.w3.org/1999/xlink" width="1920" zoomAndPan="magnify" viewBox="0 0 1440 195.000001" height="260" preserveAspectRatio="xMidYMid meet" version="1.0"><defs><clipPath id="2e22bfc028"><path d="M 14 0 L 1426 0 L 1426 194.003906 L 14 194.003906 Z M 14 0 " clip-rule="nonzero"/></clipPath><clipPath id="b547afa211"><path d="M 105.652344 0 L 1399.019531 0 C 1407.660156 0 1415.777344 4.15625 1420.832031 11.167969 C 1425.886719 18.179688 1427.261719 27.195312 1424.527344 35.394531 L 1383.457031 158.609375 C 1376.410156 179.746094 1356.628906 194.003906 1334.347656 194.003906 L 40.980469 194.003906 C 32.339844 194.003906 24.222656 189.851562 19.167969 182.835938 C 14.113281 175.824219 12.738281 166.8125 15.472656 158.609375 L 56.542969 35.394531 C 63.589844 14.257812 83.371094 0 105.652344 0 Z M 105.652344 0 " clip-rule="nonzero"/></clipPath></defs><g clip-path="url(#2e22bfc028)"><g clip-path="url(#b547afa211)"><path fill="#ffffff" d="M 3.671875 0 L 1435.976562 0 L 1435.976562 194.003906 L 3.671875 194.003906 Z M 3.671875 0 " fill-opacity="1" fill-rule="nonzero"/><path stroke-linecap="butt" transform="matrix(0.746173, 0, 0, 0.746173, 3.673466, 0.0000125187)" fill="none" stroke-linejoin="miter" d="M 136.669143 -0.0000167772 L 1870.002437 -0.0000167772 C 1881.582352 -0.0000167772 1892.460772 5.570069 1899.234918 14.966972 C 1906.009064 24.363875 1907.851799 36.446354 1904.187269 47.43471 L 1849.146024 212.56368 C 1839.702006 240.890499 1813.191747 259.998407 1783.33106 259.998407 L 49.997766 259.998407 C 38.417851 259.998407 27.539431 254.433556 20.765285 245.031418 C 13.991139 235.634515 12.148404 223.557271 15.812934 212.56368 L 70.854179 47.43471 C 80.298197 19.107891 106.808456 -0.0000167772 136.669143 -0.0000167772 Z M 136.669143 -0.0000167772 " stroke="#ffffff" stroke-width="50" stroke-opacity="1" stroke-miterlimit="4"/></g></g></svg>