<svg xmlns="http://www.w3.org/2000/svg" xmlns:xlink="http://www.w3.org/1999/xlink" width="350" zoomAndPan="magnify" viewBox="0 0 262.5 195.000001" height="260" preserveAspectRatio="xMidYMid meet" version="1.0"><defs><clipPath id="83ff4c00f8"><path d="M 2 0 L 259.828125 0 L 259.828125 194.003906 L 2 194.003906 Z M 2 0 " clip-rule="nonzero"/></clipPath><clipPath id="05f5e8ecdc"><path d="M 49.519531 0 L 224.273438 0 C 233.953125 0 243.207031 3.996094 249.839844 11.046875 C 256.476562 18.097656 259.90625 27.578125 259.320312 37.238281 L 252.054688 156.765625 C 250.785156 177.6875 233.445312 194.003906 212.484375 194.003906 L 37.730469 194.003906 C 28.046875 194.003906 18.796875 190.007812 12.160156 182.957031 C 5.527344 175.90625 2.097656 166.429688 2.683594 156.765625 L 9.945312 37.238281 C 11.21875 16.316406 28.558594 0 49.519531 0 Z M 49.519531 0 " clip-rule="nonzero"/></clipPath><clipPath id="04f42e9a35"><path d="M 2 0 L 259.769531 0 L 259.769531 194.003906 L 2 194.003906 Z M 2 0 " clip-rule="nonzero"/></clipPath><clipPath id="416acaa120"><path d="M 49.519531 0 L 224.273438 0 C 233.953125 0 243.207031 3.996094 249.839844 11.046875 C 256.476562 18.097656 259.90625 27.578125 259.320312 37.238281 L 252.054688 156.765625 C 250.785156 177.6875 233.445312 194.003906 212.484375 194.003906 L 37.730469 194.003906 C 28.046875 194.003906 18.796875 190.007812 12.160156 182.957031 C 5.527344 175.90625 2.097656 166.429688 2.683594 156.765625 L 9.945312 37.238281 C 11.21875 16.316406 28.558594 0 49.519531 0 Z M 49.519531 0 " clip-rule="nonzero"/></clipPath></defs><g clip-path="url(#83ff4c00f8)"><g clip-path="url(#05f5e8ecdc)"><path fill="#ffffff" d="M 0.421875 0 L 261.300781 0 L 261.300781 194.003906 L 0.421875 194.003906 Z M 0.421875 0 " fill-opacity="1" fill-rule="nonzero"/></g></g><g clip-path="url(#04f42e9a35)"><g clip-path="url(#416acaa120)"><path stroke-linecap="butt" transform="matrix(0.746173, 0, 0, 0.746173, 0.420922, 0.00000994898)" fill="none" stroke-linejoin="miter" d="M 65.800532 -0.0000133333 L 300.000648 -0.0000133333 C 312.973084 -0.0000133333 325.374901 5.355436 334.264004 14.804688 C 343.158342 24.253941 347.754709 36.95939 346.969453 49.905651 L 337.232273 210.092729 C 335.530884 238.131619 312.292528 259.998394 284.201288 259.998394 L 50.001173 259.998394 C 37.023501 259.998394 24.62692 254.642945 15.732582 245.193692 C 6.843479 235.74444 2.247111 223.044226 3.032368 210.092729 L 12.764312 49.905651 C 14.470936 21.866761 37.709292 -0.0000133333 65.800532 -0.0000133333 Z M 65.800532 -0.0000133333 " stroke="#ffffff" stroke-width="50" stroke-opacity="1" stroke-miterlimit="4"/></g></g></svg>