<svg xmlns="http://www.w3.org/2000/svg" xmlns:xlink="http://www.w3.org/1999/xlink" width="350" zoomAndPan="magnify" viewBox="0 0 262.5 195.000001" height="260" preserveAspectRatio="xMidYMid meet" version="1.0"><defs><clipPath id="adf3eea1f2"><path d="M 72.3125 38.3125 L 189.460938 38.3125 L 189.460938 155.460938 L 72.3125 155.460938 Z M 72.3125 38.3125 " clip-rule="nonzero"/></clipPath><clipPath id="d8dc75676a"><path d="M 138.082031 38.3125 L 123.910156 38.3125 C 119.953125 38.3125 116.160156 39.882812 113.359375 42.683594 C 110.5625 45.480469 108.988281 49.277344 108.988281 53.234375 L 108.988281 60.066406 C 108.988281 64.027344 107.417969 67.820312 104.617188 70.621094 C 101.820312 73.417969 98.023438 74.992188 94.066406 74.992188 L 87.234375 74.992188 C 83.277344 74.992188 79.480469 76.5625 76.679688 79.359375 C 73.882812 82.160156 72.3125 85.953125 72.3125 89.914062 L 72.3125 104.082031 C 72.3125 108.039062 73.882812 111.835938 76.679688 114.632812 C 79.480469 117.433594 83.277344 119.003906 87.234375 119.003906 L 94.066406 119.003906 C 98.023438 119.003906 101.820312 120.578125 104.617188 123.375 C 107.417969 126.171875 108.988281 129.96875 108.988281 133.925781 L 108.988281 140.761719 C 108.988281 144.71875 110.5625 148.515625 113.359375 151.3125 C 116.160156 154.109375 119.953125 155.683594 123.910156 155.683594 L 138.082031 155.683594 C 142.039062 155.683594 145.835938 154.109375 148.632812 151.3125 C 151.429688 148.515625 153.003906 144.71875 153.003906 140.761719 L 153.003906 133.925781 C 153.003906 129.96875 154.574219 126.171875 157.375 123.375 C 160.171875 120.578125 163.96875 119.003906 167.925781 119.003906 L 174.757812 119.003906 C 178.71875 119.003906 182.511719 117.433594 185.3125 114.632812 C 188.109375 111.835938 189.679688 108.039062 189.679688 104.082031 L 189.679688 89.914062 C 189.679688 85.953125 188.109375 82.160156 185.3125 79.359375 C 182.511719 76.5625 178.71875 74.992188 174.757812 74.992188 L 167.925781 74.992188 C 163.96875 74.992188 160.171875 73.417969 157.375 70.621094 C 154.574219 67.820312 153.003906 64.027344 153.003906 60.066406 L 153.003906 53.234375 C 153.003906 49.277344 151.429688 45.480469 148.632812 42.683594 C 145.835938 39.882812 142.039062 38.3125 138.082031 38.3125 Z M 138.082031 38.3125 " clip-rule="nonzero"/></clipPath></defs><g clip-path="url(#adf3eea1f2)"><g clip-path="url(#d8dc75676a)"><path stroke-linecap="butt" transform="matrix(0.746173, 0, 0, 0.746173, 72.31083, 38.312111)" fill="none" stroke-linejoin="miter" d="M 88.144656 0.000521928 L 69.151921 0.000521928 C 63.848822 0.000521928 58.765595 2.105009 55.01207 5.858535 C 51.263779 9.606826 49.154057 14.695287 49.154057 19.998386 L 49.154057 29.154476 C 49.154057 34.46281 47.049569 39.546036 43.296044 43.299562 C 39.547753 47.047853 34.459291 49.157575 29.156193 49.157575 L 20.000103 49.157575 C 14.697004 49.157575 9.608542 51.262062 5.855017 55.010353 C 2.106726 58.763879 0.00223857 63.847105 0.00223857 69.155439 L 0.00223857 88.14294 C 0.00223857 93.446038 2.106726 98.5345 5.855017 102.282791 C 9.608542 106.036316 14.697004 108.140804 20.000103 108.140804 L 29.156193 108.140804 C 34.459291 108.140804 39.547753 110.250526 43.296044 113.998817 C 47.049569 117.747107 49.154057 122.835569 49.154057 128.138668 L 49.154057 137.299993 C 49.154057 142.603091 51.263779 147.691553 55.01207 151.439844 C 58.765595 155.188134 63.848822 157.297857 69.151921 157.297857 L 88.144656 157.297857 C 93.447755 157.297857 98.536217 155.188134 102.284507 151.439844 C 106.032798 147.691553 108.14252 142.603091 108.14252 137.299993 L 108.14252 128.138668 C 108.14252 122.835569 110.247008 117.747107 114.000533 113.998817 C 117.748824 110.250526 122.837286 108.140804 128.140384 108.140804 L 137.296474 108.140804 C 142.604808 108.140804 147.688035 106.036316 151.44156 102.282791 C 155.189851 98.5345 157.294338 93.446038 157.294338 88.14294 L 157.294338 69.155439 C 157.294338 63.847105 155.189851 58.763879 151.44156 55.010353 C 147.688035 51.262062 142.604808 49.157575 137.296474 49.157575 L 128.140384 49.157575 C 122.837286 49.157575 117.748824 47.047853 114.000533 43.299562 C 110.247008 39.546036 108.14252 34.46281 108.14252 29.154476 L 108.14252 19.998386 C 108.14252 14.695287 106.032798 9.606826 102.284507 5.858535 C 98.536217 2.105009 93.447755 0.000521928 88.144656 0.000521928 Z M 88.144656 0.000521928 " stroke="#d9d9d9" stroke-width="40" stroke-opacity="1" stroke-miterlimit="4"/></g></g></svg>